<svg width="16" height="16" viewBox="0 0 16 16" fill="none" xmlns="http://www.w3.org/2000/svg">
<path d="M6.10807 12.9775C6.32389 12.9775 6.50097 12.9001 6.64485 12.7562L10.8893 8.61133C11.0775 8.42318 11.1715 8.22949 11.1715 7.99154C11.1715 7.75358 11.083 7.55436 10.8893 7.37175L6.64485 3.22135C6.49544 3.07747 6.31835 3 6.10807 3C5.68196 3 5.33333 3.3431 5.33333 3.76921C5.33333 3.97949 5.42187 4.17871 5.57682 4.33366L9.33984 7.99154L5.57682 11.6439C5.42187 11.7988 5.33333 11.998 5.33333 12.2083C5.33333 12.6344 5.68196 12.9775 6.10807 12.9775Z" fill="white"/>
</svg>
