<svg width="24" height="24" viewBox="0 0 24 24" fill="none" xmlns="http://www.w3.org/2000/svg">
<path fill-rule="evenodd" clip-rule="evenodd" d="M10.9 3.2C6.64741 3.2 3.2 6.64741 3.2 10.9C3.2 15.1526 6.64741 18.6 10.9 18.6C15.1526 18.6 18.6 15.1526 18.6 10.9C18.6 6.64741 15.1526 3.2 10.9 3.2ZM1 10.9C1 5.43238 5.43238 1 10.9 1C16.3676 1 20.8 5.43238 20.8 10.9C20.8 16.3676 16.3676 20.8 10.9 20.8C5.43238 20.8 1 16.3676 1 10.9Z" fill="white"/>
<path fill-rule="evenodd" clip-rule="evenodd" d="M16.3372 16.3372C16.7668 15.9076 17.4632 15.9076 17.8928 16.3372L22.6778 21.1222C23.1074 21.5518 23.1074 22.2482 22.6778 22.6778C22.2482 23.1074 21.5518 23.1074 21.1222 22.6778L16.3372 17.8928C15.9076 17.4632 15.9076 16.7668 16.3372 16.3372Z" fill="white"/>
</svg>
