<svg width="16" height="16" viewBox="0 0 16 16" fill="none" xmlns="http://www.w3.org/2000/svg">
<path d="M8 1C6.61553 1 5.26215 1.41054 4.11101 2.17971C2.95987 2.94888 2.06266 4.04213 1.53285 5.32122C1.00303 6.6003 0.86441 8.00776 1.13451 9.36563C1.4046 10.7235 2.07129 11.9708 3.05026 12.9497C4.02922 13.9287 5.2765 14.5954 6.63437 14.8655C7.99224 15.1356 9.3997 14.997 10.6788 14.4672C11.9579 13.9373 13.0511 13.0401 13.8203 11.889C14.5895 10.7378 15 9.38447 15 8C14.998 6.14411 14.2598 4.36481 12.9475 3.05249C11.6352 1.74018 9.85589 1.00203 8 1ZM13.92 7.50354C13.7771 7.51122 13.6338 7.50983 13.491 7.49939C13.3184 7.49865 13.1456 7.49865 12.9728 7.49939C12.7898 7.49994 12.6068 7.50055 12.424 7.50122C11.7048 7.50366 10.9856 7.49261 10.2665 7.49817C9.62085 7.50311 8.9187 7.44305 8.35657 7.82117C7.21839 8.58655 7.31116 10.39 8.67774 10.8115C9.04605 10.8695 9.39897 11.0009 9.71558 11.1978C10.152 11.5668 10.0504 12.212 9.99134 12.7105C9.99578 12.9584 9.92517 13.2019 9.78878 13.409C9.65239 13.6161 9.45658 13.7771 9.22705 13.871C8.82722 13.9775 8.41324 14.021 8 14C6.44542 14.0012 4.95115 13.3985 3.83244 12.3191C2.71374 11.2396 2.05808 9.7678 2.00379 8.21417C1.9767 8.03934 1.97125 7.86183 1.98755 7.68567C2.04029 7.44287 2.27805 7.47767 2.46961 7.48773C2.64307 7.49682 2.81653 7.50519 2.99024 7.50732C3.2367 7.51032 3.48328 7.51001 3.72962 7.51819C4.08989 7.54061 4.45154 7.51988 4.80689 7.45642C5.03022 7.41033 5.24015 7.31404 5.42078 7.17484C5.60141 7.03564 5.74801 6.85718 5.84949 6.65295C6.04041 6.26123 6.02271 5.78711 6.24976 5.41272C6.56201 4.89758 7.18384 5.01538 7.67493 4.80932C8.54517 4.44421 8.54943 3.47229 8.5177 2.61865C8.5152 2.54336 8.52964 2.46847 8.55996 2.39951C8.59028 2.33055 8.63571 2.26928 8.69287 2.22023C8.75004 2.17117 8.8175 2.13558 8.89027 2.11609C8.96303 2.0966 9.03925 2.0937 9.11328 2.1076C9.78514 2.23402 10.4302 2.47515 11.0203 2.82043C11.7023 3.21786 12.2992 3.74608 12.7766 4.37478C13.254 5.00347 13.6025 5.72026 13.8021 6.484C13.8757 6.75684 13.9305 7.03441 13.9662 7.31475C13.9735 7.37585 13.9954 7.47876 13.92 7.50354Z" fill="#3E69A8"/>
<path d="M5 10.75C5.41421 10.75 5.75 10.4142 5.75 10C5.75 9.58578 5.41421 9.25 5 9.25C4.58579 9.25 4.25 9.58578 4.25 10C4.25 10.4142 4.58579 10.75 5 10.75Z" fill="#3E69A8"/>
</svg>
